<?xml version="1.0" encoding="utf-8"?>
<!-- Generator: Adobe Illustrator 16.0.3, SVG Export Plug-In . SVG Version: 6.00 Build 0)  -->
<!DOCTYPE svg PUBLIC "-//W3C//DTD SVG 1.1//EN" "http://www.w3.org/Graphics/SVG/1.1/DTD/svg11.dtd">
<svg version="1.1" id="Warstwa_1" xmlns="http://www.w3.org/2000/svg" xmlns:xlink="http://www.w3.org/1999/xlink" x="0px" y="0px"
	 width="506.74px" height="137px" viewBox="0 0 506.74 137" enable-background="new 0 0 506.74 137" xml:space="preserve">
<g>
	<g>
		<defs>
			<path id="SVGID_1_" d="M60.363,3.506C45.833,5.22,35.434,18.311,37.136,32.742c1.703,14.438,14.86,24.746,29.389,23.033
				c14.533-1.715,24.929-14.805,23.229-29.238C88.177,13.157,76.752,3.32,63.517,3.32C62.475,3.32,61.423,3.381,60.363,3.506"/>
		</defs>
		<clipPath id="SVGID_2_">
			<use xlink:href="#SVGID_1_"  overflow="visible"/>
		</clipPath>
		
			<linearGradient id="SVGID_3_" gradientUnits="userSpaceOnUse" x1="-0.4434" y1="137.5049" x2="0.5566" y2="137.5049" gradientTransform="matrix(-29.1188 -43.9409 -43.9409 29.1188 6106.8989 -3971.6606)">
			<stop  offset="0" style="stop-color:#FFFFFF"/>
			<stop  offset="0.5" style="stop-color:#FFFFFF"/>
			<stop  offset="0.9" style="stop-color:#32639E"/>
			<stop  offset="1" style="stop-color:#32639E"/>
		</linearGradient>
		<polygon clip-path="url(#SVGID_2_)" fill="url(#SVGID_3_)" points="52.528,83.284 10.491,19.849 74.36,-22.476 116.397,40.959 		
			"/>
	</g>
	<g>
		<defs>
			<path id="SVGID_4_" d="M51.561,83.941c-14.53,1.715-24.93,14.804-23.226,29.235c1.7,14.435,14.859,24.746,29.389,23.035
				c14.532-1.714,24.928-14.806,23.227-29.24c-1.577-13.381-13-23.218-26.231-23.217C53.677,83.755,52.622,83.816,51.561,83.941"/>
		</defs>
		<clipPath id="SVGID_5_">
			<use xlink:href="#SVGID_4_"  overflow="visible"/>
		</clipPath>
		
			<linearGradient id="SVGID_6_" gradientUnits="userSpaceOnUse" x1="0.4434" y1="136.4941" x2="1.443" y2="136.4941" gradientTransform="matrix(29.1193 43.9417 43.9417 -29.1193 -5970.9468 4043.4519)">
			<stop  offset="0" style="stop-color:#FFFFFF"/>
			<stop  offset="0.5" style="stop-color:#FFFFFF"/>
			<stop  offset="0.9" style="stop-color:#32639E"/>
			<stop  offset="1" style="stop-color:#32639E"/>
		</linearGradient>
		<polygon clip-path="url(#SVGID_5_)" fill="url(#SVGID_6_)" points="65.558,57.958 107.595,121.394 43.726,163.719 1.688,100.283 
					"/>
	</g>
	<g>
		<defs>
			<path id="SVGID_7_" d="M1.56,64.324c-2.999,31.589,20.178,59.628,51.763,62.625c31.588,2.998,59.624-20.177,62.624-51.765
				c2.998-31.587-20.178-59.625-51.765-62.623c-1.847-0.175-3.679-0.261-5.497-0.261C29.405,12.303,4.381,34.587,1.56,64.324"/>
		</defs>
		<clipPath id="SVGID_8_">
			<use xlink:href="#SVGID_7_"  overflow="visible"/>
		</clipPath>
		
			<radialGradient id="SVGID_9_" cx="-0.1719" cy="136.5977" r="1" gradientTransform="matrix(79.3999 -11.4391 -11.4391 -79.3999 1622.7201 10890.4756)" gradientUnits="userSpaceOnUse">
			<stop  offset="0" style="stop-color:#4C99D0"/>
			<stop  offset="1" style="stop-color:#325C9A"/>
		</radialGradient>
		<polygon clip-path="url(#SVGID_8_)" fill="url(#SVGID_9_)" points="-18.043,14.693 116.497,-4.69 135.549,127.555 1.009,146.938 
					"/>
	</g>
	<g>
		<g opacity="0.2">
			<g>
				<defs>
					<rect id="SVGID_10_" x="1.299" y="4.574" width="114.909" height="130.29"/>
				</defs>
				<clipPath id="SVGID_11_">
					<use xlink:href="#SVGID_10_"  overflow="visible"/>
				</clipPath>
				<g clip-path="url(#SVGID_11_)">
					<defs>
						<path id="SVGID_12_" d="M115.947,75.186c-2.999,31.584-31.037,54.762-62.623,51.764C21.737,123.951-1.439,95.914,1.56,64.324
							C4.558,32.738,32.596,9.563,64.183,12.562C95.77,15.559,118.945,43.598,115.947,75.186"/>
					</defs>
					<clipPath id="SVGID_13_">
						<use xlink:href="#SVGID_12_"  overflow="visible"/>
					</clipPath>
					<g opacity="0.8" clip-path="url(#SVGID_13_)">
						<g>
							<defs>
								<rect id="SVGID_14_" x="-9" y="-31.56" width="134.16" height="202.56"/>
							</defs>
							<clipPath id="SVGID_15_">
								<use xlink:href="#SVGID_14_"  overflow="visible"/>
							</clipPath>
							<g clip-path="url(#SVGID_15_)">
								<defs>
									<rect id="SVGID_16_" x="-9" y="-31.56" width="134.16" height="202.56"/>
								</defs>
								<clipPath id="SVGID_17_">
									<use xlink:href="#SVGID_16_"  overflow="visible"/>
								</clipPath>
								<g transform="matrix(1 0 0 1 0 1.907349e-006)" clip-path="url(#SVGID_17_)">
									
										<image overflow="visible" width="559" height="844" xlink:href="798C64F0.png"  transform="matrix(0.24 0 0 0.24 -9 -31.5601)">
									</image>
								</g>
							</g>
						</g>
					</g>
				</g>
			</g>
		</g>
	</g>
	<g>
		<defs>
			<path id="SVGID_18_" d="M25.313,39.82c1.522,24.672,16.75,33.064,27.393,46.439l-0.003,0.006
				c4.569,5.748,10.509,12.282,11.084,21.615c1.688,27.327-21.393,25.442-22.253,25.355c18.358,9.4,52.577-2.461,50.659-33.511
				c-1.522-24.674-16.752-33.063-27.392-46.438v-0.006c-4.568-5.748-10.506-12.282-11.081-21.615
				C52.031,4.339,75.112,6.226,75.972,6.311C71.869,4.209,66.973,3.17,61.866,3.17C44.123,3.169,23.823,15.713,25.313,39.82"/>
		</defs>
		<clipPath id="SVGID_19_">
			<use xlink:href="#SVGID_18_"  overflow="visible"/>
		</clipPath>
		
			<linearGradient id="SVGID_20_" gradientUnits="userSpaceOnUse" x1="0.1934" y1="136.7695" x2="1.1934" y2="136.7695" gradientTransform="matrix(66.7605 100.743 100.743 -66.7605 -13767.4229 9131.5879)">
			<stop  offset="0" style="stop-color:#7CA2C9"/>
			<stop  offset="0.1063" style="stop-color:#B0C7DF"/>
			<stop  offset="0.2076" style="stop-color:#DBE5F0"/>
			<stop  offset="0.2865" style="stop-color:#F5F8FB"/>
			<stop  offset="0.3333" style="stop-color:#FFFFFF"/>
			<stop  offset="0.4951" style="stop-color:#F8FAFB"/>
			<stop  offset="0.7348" style="stop-color:#E4ECF1"/>
			<stop  offset="0.8364" style="stop-color:#D9E5EC"/>
			<stop  offset="1" style="stop-color:#7CA2C9"/>
		</linearGradient>
		<polygon clip-path="url(#SVGID_19_)" fill="url(#SVGID_20_)" points="72.663,-29.196 158.332,100.079 45.271,175.002 
			-40.397,45.727 		"/>
	</g>
	<g>
		<path fill="#3869A3" d="M175.749,105.493c18.553,0,27.676-9.535,27.676-22.183c0-25.813-39.701-18.451-39.701-29.336
			c0-4.146,3.524-6.84,9.744-6.84c7.049,0,14.511,2.383,20.11,7.566l8.188-10.988c-6.841-6.324-15.963-9.64-26.951-9.64
			c-16.275,0-26.225,9.536-26.225,21.042c0,26.017,39.805,17.622,39.805,29.646c0,4.042-3.836,7.669-12.025,7.669
			c-9.537,0-17.103-4.353-21.975-9.432l-8.085,11.507C152.838,101.035,162.375,105.493,175.749,105.493"/>
		<rect x="212.219" y="35.109" fill="#3869A3" width="14.721" height="69.139"/>
		<path fill="#3869A3" d="M266.947,104.248c21.56,0,36.587-13.682,36.587-34.62c0-20.731-15.027-34.519-36.689-34.519h-27.267
			v69.139H266.947z M266.845,91.292H254.3V48.066h12.647c14.099,0,21.56,9.432,21.56,21.562
			C288.507,81.445,280.527,91.292,266.845,91.292"/>
		<polygon fill="#3869A3" points="374.833,104.248 374.833,35.109 360.112,35.109 360.112,78.542 328.081,35.109 312.948,35.109 
			312.948,104.248 327.669,104.248 327.669,59.157 360.632,104.248 		"/>
		<polygon fill="#3869A3" points="436.39,104.248 436.39,91.292 402.181,91.292 402.181,75.537 435.663,75.537 435.663,62.579 
			402.181,62.579 402.181,48.066 436.39,48.066 436.39,35.109 387.462,35.109 387.462,104.248 		"/>
		<polygon fill="#3869A3" points="477.63,104.248 477.63,48.066 497.739,48.066 497.739,35.109 442.595,35.109 442.595,48.066 
			462.809,48.066 462.809,104.248 		"/>
	</g>
</g>
</svg>
